HIERARCHY
ROOT Hips
{
	OFFSET 0.00000 0.00000 0.00000
	CHANNELS 6 Xposition Yposition Zposition Zrotation Yrotation Xrotation 
	JOINT LHipJoint
	{
		OFFSET 0 0 0
		CHANNELS 3 Zrotation Yrotation Xrotation
		JOINT LeftUpLeg
		{
			OFFSET 1.77779 -1.88989 0.48267
			CHANNELS 3 Zrotation Yrotation Xrotation
			JOINT LeftLeg
			{
				OFFSET 2.53442 -6.96327 0.00000
				CHANNELS 3 Zrotation Yrotation Xrotation
				JOINT LeftFoot
				{
					OFFSET 2.71068 -7.44755 0.00000
					CHANNELS 3 Zrotation Yrotation Xrotation
					JOINT LeftToeBase
					{
						OFFSET 0.17992 -0.49431 2.22524
						CHANNELS 3 Zrotation Yrotation Xrotation
						End Site
						{
							OFFSET 0.00000 -0.00000 1.14687
						}
					}
				}
			}
		}
	}
	JOINT RHipJoint
	{
		OFFSET 0 0 0
		CHANNELS 3 Zrotation Yrotation Xrotation
		JOINT RightUpLeg
		{
			OFFSET -1.58469 -1.88989 0.48267
			CHANNELS 3 Zrotation Yrotation Xrotation
			JOINT RightLeg
			{
				OFFSET -2.60386 -7.15404 0.00000
				CHANNELS 3 Zrotation Yrotation Xrotation
				JOINT RightFoot
				{
					OFFSET -2.73334 -7.50979 0.00000
					CHANNELS 3 Zrotation Yrotation Xrotation
					JOINT RightToeBase
					{
						OFFSET -0.25618 -0.70384 2.21822
						CHANNELS 3 Zrotation Yrotation Xrotation
						End Site
						{
							OFFSET -0.00000 -0.00000 1.16381
						}
					}
				}
			}
		}
	}
	JOINT LowerBack
	{
		OFFSET 0 0 0
		CHANNELS 3 Zrotation Yrotation Xrotation
		JOINT Spine
		{
			OFFSET 0.03410 2.01612 -0.22230
			CHANNELS 3 Zrotation Yrotation Xrotation
			JOINT Spine1
			{
				OFFSET 0.03465 2.03012 0.00937
				CHANNELS 3 Zrotation Yrotation Xrotation
				JOINT Neck
				{
					OFFSET 0 0 0
					CHANNELS 3 Zrotation Yrotation Xrotation
					JOINT Neck1
					{
						OFFSET -0.00219 1.70459 0.20857
						CHANNELS 3 Zrotation Yrotation Xrotation
						JOINT Head
						{
							OFFSET 0.02518 1.72339 -0.22179
							CHANNELS 3 Zrotation Yrotation Xrotation
							End Site
							{
								OFFSET 0.00282 1.74122 -0.09823
							}
						}
					}
				}
				JOINT LeftShoulder
				{
					OFFSET 0 0 0
					CHANNELS 3 Zrotation Yrotation Xrotation
					JOINT LeftArm
					{
						OFFSET 3.36358 1.00547 -0.37661
						CHANNELS 3 Zrotation Yrotation Xrotation
						JOINT LeftForeArm
						{
							OFFSET 5.06507 -0.00000 0.00000
							CHANNELS 3 Zrotation Yrotation Xrotation
							JOINT LeftHand
							{
								OFFSET 3.60196 -0.00000 0.00000
								CHANNELS 3 Zrotation Yrotation Xrotation
								JOINT LeftFingerBase
								{
									OFFSET 0 0 0
									CHANNELS 3 Zrotation Yrotation Xrotation
									JOINT LeftHandIndex1
									{
										OFFSET 0.45035 -0.00000 0.00000
										CHANNELS 3 Zrotation Yrotation Xrotation
										End Site
										{
											OFFSET 0.36308 -0.00000 0.00000
										}
									}
								}
								JOINT LThumb
								{
									OFFSET 0 0 0
									CHANNELS 3 Zrotation Yrotation Xrotation
									End Site
									{
										OFFSET 0.36862 -0.00000 0.36862
									}
								}
							}
						}
					}
				}
				JOINT RightShoulder
				{
					OFFSET 0 0 0
					CHANNELS 3 Zrotation Yrotation Xrotation
					JOINT RightArm
					{
						OFFSET -3.50159 0.80383 -0.71526
						CHANNELS 3 Zrotation Yrotation Xrotation
						JOINT RightForeArm
						{
							OFFSET -5.36394 -0.00000 0.00000
							CHANNELS 3 Zrotation Yrotation Xrotation
							JOINT RightHand
							{
								OFFSET -3.58035 -0.00000 0.00000
								CHANNELS 3 Zrotation Yrotation Xrotation
								JOINT RightFingerBase
								{
									OFFSET 0 0 0
									CHANNELS 3 Zrotation Yrotation Xrotation
									JOINT RightHandIndex1
									{
										OFFSET -0.66375 -0.00000 0.00000
										CHANNELS 3 Zrotation Yrotation Xrotation
										End Site
										{
											OFFSET -0.53513 -0.00000 0.00000
										}
									}
								}
								JOINT RThumb
								{
									OFFSET 0 0 0
									CHANNELS 3 Zrotation Yrotation Xrotation
									End Site
									{
										OFFSET -0.54330 -0.00000 0.54330
									}
								}
							}
						}
					}
				}
			}
		}
	}
}
MOTION
Frames: 7
Frame Time: .0083333
-0.3958 17.9424 -32.3231 0 0 0 0 0 0 -21 0 0 0 0 0 0 0 0 0 0 0 0 0 0 21 0 0 0 0 0 0 0 0 0 0 0 0 0 0 0 0 0 0 0 0 0 0 -16 0 0 21 0 0 11 0 0 0 -8 0 0 0 0 0 0 0 0 0 0 0 0 0 0 0 0 0 0 0 0 8 0 0 0 0 0 0 0 0 0 0 0 0 0 0 0 0 0
-0.3958 17.9424 -32.3231 -7.3149 -5.1411 -2.2860 0.0000 0.0000 0.0000 -9.9542 -7.3657 -26.1019 5.5773 14.0058 43.2606 0.2492 0.8762 -9.7892 0.1701 -2.6573 -7.3259 0.0000 0.0000 0.0000 33.2986 7.5044 -2.3655 -2.3678 -9.5935 27.6701 -1.1464 2.6023 -19.5404 -0.4887 -4.4826 12.4385 5.8434 1.0411 9.5737 2.8216 2.0976 1.4475 -0.6100 0.9750 -3.7584 -1.7009 -3.0949 -15.5942 0.9255 -4.0331 17.6323 0.1249 -1.9343 8.0880 -0.0000 -0.0000 0.0000 -86.7862 5.5940 24.4990 14.9151 -24.0276 -3.1913 -0.0000 0.0000 -2.9329 28.1535 21.9860 11.3292 -7.1250 0.0000 -0.0000 -0.7298 54.5823 -0.1718 -0.0000 -0.0000 0.0000 85.8600 6.1851 22.4534 -14.9088 24.0189 -3.1887 0.0000 0.0000 2.3786 -19.4667 21.3932 -7.3467 7.1250 -0.0000 -0.0000 5.8357 -7.5131 5.0495
-0.3974 17.9568 -32.1707 -7.5092 -5.5406 -2.1552 0.0000 0.0000 0.0000 -9.4842 -7.5845 -26.2389 5.0447 13.4340 41.0156 0.2251 1.3581 -9.5644 0.1099 -2.1372 -5.8850 0.0000 0.0000 0.0000 33.5345 7.3116 -1.6794 -2.2758 -9.4184 27.1133 -1.1313 2.5229 -19.4229 -0.4580 -4.3413 12.0388 6.1710 1.4150 9.6569 2.5837 2.5528 2.5934 -1.0763 1.2456 -2.5576 -1.0745 -3.3502 -20.6148 0.8896 -4.5025 18.9413 -0.1445 -2.0701 9.4200 0.0000 -0.0000 0.0000 -86.3033 2.7198 25.0549 14.4726 -23.4063 -3.0133 -0.0000 0.0000 -2.7862 28.0842 22.6756 11.6241 -7.1250 0.0000 -0.0000 -0.9833 55.3179 -0.2491 0.0000 -0.0000 0.0000 86.1220 9.1157 21.8390 -14.9227 24.0384 -3.1944 0.0000 0.0000 2.6528 -20.9109 22.1246 -8.1886 7.1250 -0.0000 -0.0000 4.9820 -6.5345 4.3998
-0.3998 17.9593 -32.0203 -7.5691 -5.7903 -2.0424 0.0000 0.0000 0.0000 -9.2029 -7.8210 -26.2538 4.4709 12.7620 38.4841 0.1767 1.8625 -8.8530 0.1127 -2.1649 -5.9615 0.0000 0.0000 0.0000 33.6603 7.1974 -1.2344 -2.2529 -9.3742 26.9729 -1.1467 2.2020 -19.6290 -0.3763 -3.9397 10.9072 6.1147 1.5304 9.6501 2.5985 2.7284 2.1343 -1.0582 1.3129 -3.0258 -1.1595 -3.4140 -18.4964 0.9077 -4.5787 18.2393 -0.0907 -2.1318 8.8024 -0.0000 -0.0000 0.0000 -86.4423 3.8031 24.9943 14.4070 -23.3135 -2.9873 -0.0000 0.0000 -2.7458 28.2440 22.5157 11.6240 -7.1250 0.0000 -0.0000 -0.7685 55.1780 -0.1921 -0.0000 -0.0000 0.0000 85.9908 8.3881 22.1099 -15.2318 24.4680 -3.3213 0.0000 0.0000 2.3602 -20.5263 21.4663 -7.8018 7.1250 -0.0000 -0.0000 5.1696 -7.2797 4.4916
-0.3975 17.9481 -31.8653 -7.6707 -5.6654 -1.9906 0.0000 0.0000 0.0000 -8.9332 -8.2754 -26.1033 3.9297 12.0663 35.9668 0.1465 2.1421 -8.3516 0.1441 -2.4462 -6.7406 0.0000 0.0000 0.0000 33.8225 6.8604 -0.7595 -2.2058 -9.2822 26.6822 -1.1607 1.7435 -19.8616 -0.2537 -3.2408 8.9499 6.4049 1.5762 9.4841 2.3904 2.7918 2.2057 -1.4346 1.3491 -2.8301 -0.6937 -3.3241 -18.6441 0.9492 -4.5905 18.0730 -0.1545 -2.1005 8.7615 0.0000 0.0000 0.0000 -86.2167 3.8284 24.9636 14.2661 -23.1138 -2.9317 -0.0000 0.0000 -2.7100 27.9904 20.6479 10.6151 -7.1250 0.0000 -0.0000 -0.5841 53.0891 -0.1162 0.0000 0.0000 0.0000 86.2132 9.0034 21.8434 -15.3030 24.5665 -3.3509 0.0000 0.0000 2.0271 -19.3456 20.1957 -6.9109 7.1250 -0.0000 -0.0000 5.8292 -8.7705 4.8984
-0.3913 17.9441 -31.7046 -7.6090 -5.6579 -1.8507 0.0000 0.0000 0.0000 -8.8133 -8.7850 -25.8598 3.4063 11.3254 33.3855 0.1207 2.4879 -7.9715 0.1611 -2.5864 -7.1293 0.0000 0.0000 0.0000 33.7583 6.6491 -0.3179 -2.1689 -9.2094 26.4525 -1.1851 1.5867 -20.1160 -0.1759 -2.7018 7.4495 6.2156 1.4811 9.4145 2.5113 2.6955 1.3999 -1.2067 1.2663 -3.6556 -1.2725 -3.0919 -15.7413 1.2556 -4.1985 17.5996 0.1432 -1.9492 8.1034 0.0000 0.0000 0.0000 -86.6788 5.8608 24.5560 14.2554 -23.0986 -2.9275 -0.0000 0.0000 -2.8184 27.7884 19.3056 9.8831 -7.1250 0.0000 -0.0000 -0.5074 51.5812 -0.0822 0.0000 0.0000 0.0000 85.8780 7.6812 22.4837 -15.5131 24.8560 -3.4387 0.0000 0.0000 1.6403 -18.4477 19.0895 -6.2261 7.1250 -0.0000 -0.0000 6.3425 -10.0339 5.1731
-0.3851 17.9391 -31.5452 -7.7443 -5.7287 -1.6659 0.0000 0.0000 0.0000 -8.4356 -9.3149 -25.6791 2.9189 10.5626 30.8185 0.0929 2.9343 -7.6058 0.1484 -2.4826 -6.8415 0.0000 0.0000 0.0000 33.9455 6.6842 0.2450 -2.1250 -9.1217 26.1768 -1.2101 1.3437 -20.3968 -0.1599 -2.5762 7.1009 5.9394 1.3226 9.5942 2.8964 2.5172 0.9461 -0.6443 1.1610 -4.2729 -2.1429 -3.0008 -14.7103 1.4022 -3.9172 17.8403 0.3804 -1.8664 8.0185 -0.0000 -0.0000 0.0000 -87.5703 6.9222 23.6209 14.2088 -23.0324 -2.9093 -0.0000 0.0000 -2.6601 27.7035 19.6281 10.0032 -7.1250 0.0000 -0.0000 -0.6602 51.9188 -0.1125 -0.0000 -0.0000 0.0000 85.1289 7.1019 23.6528 -15.7402 25.1671 -3.5348 0.0000 0.0000 1.2272 -18.0101 17.9711 -5.7282 7.1250 -0.0000 -0.0000 6.5726 -11.2422 5.2003
